<svg xmlns="http://www.w3.org/2000/svg" viewBox="0 0 24 24" fill="#CB2B39" role="img" aria-label="SonarQube">
  <title>SonarQube</title>
  <path d="M12 0C5.373 0 0 5.373 0 12s5.373 12 12 12 12-5.373 12-12S18.627 0 12 0zm0 2.571a9.43 9.43 0 1 1 0 18.858A9.43 9.43 0 0 1 12 2.571zm0 1.715a7.715 7.715 0 1 0 0 15.428A7.715 7.715 0 0 0 12 4.286zm0 1.714a6 6 0 1 1 0 12 6 6 0 0 1 0-12zm0 1.714a4.286 4.286 0 1 0 0 8.572 4.286 4.286 0 0 0 0-8.572zm0 1.715a2.571 2.571 0 1 1 0 5.142 2.571 2.571 0 0 1 0-5.142z"/>
</svg>
